<?xml version="1.0" encoding="UTF-8" standalone="no"?>
<!-- Created with Inkscape (http://www.inkscape.org/) -->

<svg
   width="67.733337mm"
   height="67.733536mm"
   viewBox="0 0 67.733338 67.733538"
   version="1.1"
   id="svg1"
   xml:space="preserve"
   xmlns="http://www.w3.org/2000/svg"
   xmlns:svg="http://www.w3.org/2000/svg"><defs
     id="defs1" /><g
     id="g1"
     transform="matrix(7.211876,0,0,7.211876,-172.81537,99.91954)"
     style="stroke-width:0.13866"><path
       id="path2"
       style="fill:#f43f5e;fill-opacity:1;stroke:none;stroke-width:0.138659"
       d="m 28.63244,-13.852919 a 4.6960011,4.6960011 0 0 0 -4.66983,4.6940969 4.6960011,4.6960011 0 0 0 4.3618,4.6720973 2.3480007,2.3480007 0 0 0 0.334078,0.023808 2.3480007,2.3480007 0 0 0 2.348102,-2.3479363 2.3480007,2.3480007 0 0 0 -2.348102,-2.3479408 2.3480007,2.3480007 0 0 1 -2.347937,-2.3481021 2.3480007,2.3480007 0 0 1 2.321889,-2.345995 z m -0.350575,4.7271023 a 2.3480007,2.3480007 0 0 0 -0.111633,0.024252 2.3480007,2.3480007 0 0 1 0.111633,-0.024252 z m -0.366922,0.092699 a 2.3480007,2.3480007 0 0 0 -0.126515,0.047077 2.3480007,2.3480007 0 0 1 0.126515,-0.047077 z m -0.355276,0.1538558 a 2.3480007,2.3480007 0 0 0 -0.114216,0.062445 2.3480007,2.3480007 0 0 1 0.114216,-0.062445 z m -0.352198,0.2290837 a 2.3480007,2.3480007 0 0 0 -0.06924,0.05177 2.3480007,2.3480007 0 0 1 0.06924,-0.05177 z m -0.33602,0.3185483 a 2.3480007,2.3480007 0 0 0 -0.05403,0.072154 2.3480007,2.3480007 0 0 1 0.05403,-0.072154 z m -0.218892,0.3075424 a 2.3480007,2.3480007 0 0 0 -0.06309,0.1156779 2.3480007,2.3480007 0 0 1 0.06309,-0.1156779 z m -0.168737,0.3421713 a 2.3480007,2.3480007 0 0 0 -0.04789,0.1282951 2.3480007,2.3480007 0 0 1 0.04789,-0.1282951 z m -0.114868,0.3782467 a 2.3480007,2.3480007 0 0 0 -0.02574,0.1184253 2.3480007,2.3480007 0 0 1 0.02574,-0.1184253 z m -0.02425,0.8737819 a 2.3480007,2.3480007 0 0 0 0.02554,0.1174545 2.3480007,2.3480007 0 0 1 -0.02554,-0.1174545 z m 0.09593,0.3740406 a 2.3480007,2.3480007 0 0 0 0.0474,0.1273202 2.3480007,2.3480007 0 0 1 -0.0474,-0.1273202 z m 0.162271,0.3672405 a 2.3480007,2.3480007 0 0 0 0.05727,0.1048373 2.3480007,2.3480007 0 0 1 -0.05727,-0.1048373 z m 0.556201,0.6806202 a 2.3480007,2.3480007 0 0 0 0.09723,0.072803 2.3480007,2.3480007 0 0 1 -0.09723,-0.072803 z m 0.317094,0.2198585 a 2.3480007,2.3480007 0 0 0 0.119557,0.065362 2.3480007,2.3480007 0 0 1 -0.119557,-0.065362 z m 0.36239,0.1710051 a 2.3480007,2.3480007 0 0 0 0.114542,0.04271 2.3480007,2.3480007 0 0 1 -0.114542,-0.04271 z" /><path
       id="path3"
       style="fill:#1e293b;fill-opacity:1;stroke:none;stroke-width:0.138659"
       d="m 28.658488,-13.854861 a 2.3480007,2.3480007 0 0 0 -2.347937,2.347937 2.3480007,2.3480007 0 0 0 2.347937,2.3481019 2.3480007,2.3480007 0 0 0 0.324534,-0.023285 2.3480007,2.3480007 0 0 1 -0.324534,0.023285 2.3480007,2.3480007 0 0 1 2.348102,2.3479367 2.3480007,2.3480007 0 0 1 -2.348102,2.3479407 4.6960011,4.6960011 0 0 0 4.696038,-4.6958774 4.6960011,4.6960011 0 0 0 -4.414536,-4.6784019 2.3480007,2.3480007 0 0 0 -0.164535,-0.0147 2.3480007,2.3480007 0 0 0 -0.116967,-0.0028 z m 0.501365,0.05484 a 2.3480007,2.3480007 0 0 1 0.0168,0.0036 2.3480007,2.3480007 0 0 0 -0.0168,-0.0036 z m 0.382609,0.118264 a 2.3480007,2.3480007 0 0 1 0.0065,0.0024 2.3480007,2.3480007 0 0 0 -0.0065,-0.0024 z m 0.350748,0.178446 a 2.3480007,2.3480007 0 0 1 0.01277,0.0079 2.3480007,2.3480007 0 0 0 -0.01277,-0.0079 z m 0.320002,0.237495 a 2.3480007,2.3480007 0 0 1 0.006,0.0052 2.3480007,2.3480007 0 0 0 -0.006,-0.0052 z m 0.273574,0.286353 a 2.3480007,2.3480007 0 0 1 0.0071,0.0092 2.3480007,2.3480007 0 0 0 -0.0071,-0.0092 z m 0.219694,0.325344 a 2.3480007,2.3480007 0 0 1 0.0076,0.01358 2.3480007,2.3480007 0 0 0 -0.0076,-0.01358 z m 0.165506,0.364654 a 2.3480007,2.3480007 0 0 1 0.0032,0.01019 2.3480007,2.3480007 0 0 0 -0.0032,-0.01019 z m 0.09901,0.37954 a 2.3480007,2.3480007 0 0 1 0.0028,0.01567 2.3480007,2.3480007 0 0 0 -0.0028,-0.01567 z m 0.03561,0.402997 a 2.3480007,2.3480007 0 0 1 -0.02328,0.324535 2.3480007,2.3480007 0 0 0 0.02328,-0.324535 z m -0.02703,0.34848 a 2.3480007,2.3480007 0 0 1 -0.06471,0.297358 2.3480007,2.3480007 0 0 0 0.06471,-0.297358 z m -0.07329,0.326803 a 2.3480007,2.3480007 0 0 1 -0.108234,0.290075 2.3480007,2.3480007 0 0 0 0.108234,-0.290075 z m -0.114869,0.305443 a 2.3480007,2.3480007 0 0 1 -0.155793,0.285704 2.3480007,2.3480007 0 0 0 0.155793,-0.285704 z m -0.162264,0.294925 a 2.3480007,2.3480007 0 0 1 -0.188638,0.2518933 2.3480007,2.3480007 0 0 0 0.188638,-0.2518933 z m -0.207237,0.2730872 a 2.3480007,2.3480007 0 0 1 -0.213397,0.2135539 2.3480007,2.3480007 0 0 0 0.213397,-0.2135539 z m -0.23669,0.2340991 a 2.3480007,2.3480007 0 0 1 -0.250922,0.187828 2.3480007,2.3480007 0 0 0 0.250922,-0.187828 z m -0.260304,0.1943018 a 2.3480007,2.3480007 0 0 1 -0.285712,0.1557935 2.3480007,2.3480007 0 0 0 0.285712,-0.1557935 z m -0.301077,0.1624284 a 2.3480007,2.3480007 0 0 1 -0.290075,0.1082333 2.3480007,2.3480007 0 0 0 0.290075,-0.1082333 z m -0.319519,0.1168019 a 2.3480007,2.3480007 0 0 1 -0.297358,0.064713 2.3480007,2.3480007 0 0 0 0.297358,-0.064713 z" /></g></svg>
