<?xml version="1.0" encoding="UTF-8" standalone="no"?>
<!-- Created with Inkscape (http://www.inkscape.org/) -->

<svg
   width="52.916668mm"
   height="10.847917mm"
   viewBox="0 0 52.916668 10.847917"
   version="1.1"
   id="svg1"
   xml:space="preserve"
   xmlns="http://www.w3.org/2000/svg"
   xmlns:svg="http://www.w3.org/2000/svg"><defs
     id="defs1" /><g
     id="g1"><rect
       style="fill:none;stroke-width:1"
       id="rect1"
       width="52.916668"
       height="10.847917"
       x="-1.7163086e-07"
       y="5.0756836e-07" /><path
       id="path2"
       style="fill:#f43f5e;fill-opacity:1;stroke:none;stroke-width:0.99999"
       d="m 27.572958,0.00194384 a 4.6960011,4.6960011 0 0 0 -4.66983,4.69409676 4.6960011,4.6960011 0 0 0 4.3618,4.6720973 2.3480007,2.3480007 0 0 0 0.334078,0.023808 A 2.3480007,2.3480007 0 0 0 29.947108,7.0440096 2.3480007,2.3480007 0 0 0 27.599006,4.6960688 2.3480007,2.3480007 0 0 1 25.251069,2.347967 2.3480007,2.3480007 0 0 1 27.572958,0.00197204 Z M 27.222383,4.729046 A 2.3480007,2.3480007 0 0 0 27.11075,4.753298 2.3480007,2.3480007 0 0 1 27.222383,4.729046 Z m -0.366922,0.092699 a 2.3480007,2.3480007 0 0 0 -0.126515,0.047077 2.3480007,2.3480007 0 0 1 0.126515,-0.047077 z m -0.355276,0.1538558 a 2.3480007,2.3480007 0 0 0 -0.114216,0.062445 2.3480007,2.3480007 0 0 1 0.114216,-0.062445 z m -0.352198,0.2290837 a 2.3480007,2.3480007 0 0 0 -0.06924,0.05177 2.3480007,2.3480007 0 0 1 0.06924,-0.05177 z m -0.33602,0.3185483 a 2.3480007,2.3480007 0 0 0 -0.05403,0.072154 2.3480007,2.3480007 0 0 1 0.05403,-0.072154 z m -0.218892,0.3075424 a 2.3480007,2.3480007 0 0 0 -0.06309,0.1156779 2.3480007,2.3480007 0 0 1 0.06309,-0.1156779 z m -0.168737,0.3421713 a 2.3480007,2.3480007 0 0 0 -0.04789,0.1282951 2.3480007,2.3480007 0 0 1 0.04789,-0.1282951 z M 25.30947,6.5511932 a 2.3480007,2.3480007 0 0 0 -0.02574,0.1184253 2.3480007,2.3480007 0 0 1 0.02574,-0.1184253 z m -0.02425,0.8737819 a 2.3480007,2.3480007 0 0 0 0.02554,0.1174545 2.3480007,2.3480007 0 0 1 -0.02554,-0.1174545 z m 0.09593,0.3740406 a 2.3480007,2.3480007 0 0 0 0.0474,0.1273202 2.3480007,2.3480007 0 0 1 -0.0474,-0.1273202 z m 0.162271,0.3672405 a 2.3480007,2.3480007 0 0 0 0.05727,0.1048373 2.3480007,2.3480007 0 0 1 -0.05727,-0.1048373 z m 0.556201,0.6806202 a 2.3480007,2.3480007 0 0 0 0.09723,0.072803 2.3480007,2.3480007 0 0 1 -0.09723,-0.072803 z m 0.317094,0.2198585 a 2.3480007,2.3480007 0 0 0 0.119557,0.065362 2.3480007,2.3480007 0 0 1 -0.119557,-0.065362 z m 0.36239,0.1710051 a 2.3480007,2.3480007 0 0 0 0.114542,0.04271 2.3480007,2.3480007 0 0 1 -0.114542,-0.04271 z" /><path
       id="path3"
       style="fill:#1e293b;fill-opacity:1;stroke:none;stroke-width:0.99999"
       d="M 27.599006,2.1095252e-6 A 2.3480007,2.3480007 0 0 0 25.251069,2.3479388 2.3480007,2.3480007 0 0 0 27.599006,4.6960406 2.3480007,2.3480007 0 0 0 27.92354,4.672756 2.3480007,2.3480007 0 0 1 27.599006,4.6960406 2.3480007,2.3480007 0 0 1 29.947108,7.0439773 2.3480007,2.3480007 0 0 1 27.599006,9.391918 4.6960011,4.6960011 0 0 0 32.295044,4.6960406 4.6960011,4.6960011 0 0 0 27.880508,0.01763881 2.3480007,2.3480007 0 0 0 27.715973,0.00293484 2.3480007,2.3480007 0 0 0 27.599006,1.1490704e-4 Z M 28.100371,0.05484587 a 2.3480007,2.3480007 0 0 1 0.0168,0.0036256 2.3480007,2.3480007 0 0 0 -0.0168,-0.0036256 z m 0.382609,0.11826417 a 2.3480007,2.3480007 0 0 1 0.0065,0.002417 2.3480007,2.3480007 0 0 0 -0.0065,-0.002417 z m 0.350748,0.17844567 a 2.3480007,2.3480007 0 0 1 0.01277,0.007936 2.3480007,2.3480007 0 0 0 -0.01277,-0.007936 z m 0.320002,0.23749517 a 2.3480007,2.3480007 0 0 1 0.006,0.005156 2.3480007,2.3480007 0 0 0 -0.006,-0.005156 z m 0.273574,0.28635261 a 2.3480007,2.3480007 0 0 1 0.0071,0.009225 2.3480007,2.3480007 0 0 0 -0.0071,-0.009225 z m 0.219694,0.32534431 a 2.3480007,2.3480007 0 0 1 0.0076,0.013576 2.3480007,2.3480007 0 0 0 -0.0076,-0.013576 z m 0.165506,0.3646542 a 2.3480007,2.3480007 0 0 1 0.0032,0.010192 2.3480007,2.3480007 0 0 0 -0.0032,-0.010192 z m 0.09901,0.3795395 a 2.3480007,2.3480007 0 0 1 0.0028,0.015671 2.3480007,2.3480007 0 0 0 -0.0028,-0.015671 z m 0.03561,0.4029973 a 2.3480007,2.3480007 0 0 1 -0.02328,0.3245346 2.3480007,2.3480007 0 0 0 0.02328,-0.3245346 z m -0.02703,0.3484799 a 2.3480007,2.3480007 0 0 1 -0.06471,0.2973584 2.3480007,2.3480007 0 0 0 0.06471,-0.2973584 z m -0.07329,0.3268026 A 2.3480007,2.3480007 0 0 1 29.73857,3.3132962 2.3480007,2.3480007 0 0 0 29.846804,3.0232213 Z m -0.114869,0.3054436 a 2.3480007,2.3480007 0 0 1 -0.155793,0.285704 2.3480007,2.3480007 0 0 0 0.155793,-0.285704 z M 29.569671,3.6235901 A 2.3480007,2.3480007 0 0 1 29.381033,3.875483 2.3480007,2.3480007 0 0 0 29.569671,3.6235901 Z M 29.362434,3.8966769 A 2.3480007,2.3480007 0 0 1 29.149037,4.1102308 2.3480007,2.3480007 0 0 0 29.362434,3.8966769 Z M 29.125744,4.130776 A 2.3480007,2.3480007 0 0 1 28.874822,4.318604 2.3480007,2.3480007 0 0 0 29.125744,4.130776 Z M 28.86544,4.3250778 A 2.3480007,2.3480007 0 0 1 28.579728,4.4808713 2.3480007,2.3480007 0 0 0 28.86544,4.3250778 Z m -0.301077,0.1624284 a 2.3480007,2.3480007 0 0 1 -0.290075,0.1082333 2.3480007,2.3480007 0 0 0 0.290075,-0.1082333 z m -0.319519,0.1168019 a 2.3480007,2.3480007 0 0 1 -0.297358,0.064713 2.3480007,2.3480007 0 0 0 0.297358,-0.064713 z" /><path
       id="text11"
       style="font-weight:900;font-size:35.2777px;font-family:Poppins;-inkscape-font-specification:'Poppins Heavy';letter-spacing:0px;fill:#f43f5e;fill-opacity:1;stroke-width:0.999997"
       d="M 19.82773 1.4748454 C 18.876976 1.4748454 18.250896 1.9334227 17.892965 2.4815023 L 17.892965 1.5198039 L 15.409395 1.5198039 L 15.409395 7.8284627 L 17.892965 7.8284627 L 17.892965 4.483964 C 17.892965 3.8799573 18.22855 3.5108968 18.776632 3.5108968 C 19.313529 3.5108968 19.660299 3.8799573 19.660299 4.483964 L 19.660299 7.8284627 L 22.131982 7.8284627 L 22.131982 4.1708049 C 22.131982 2.5377427 21.281825 1.4748454 19.82773 1.4748454 z M 0.2418457 1.5192871 L 2.4675496 4.5056681 L 0.3534668 7.827946 L 3.0824992 7.827946 L 3.876766 6.4073608 L 4.9392334 7.827946 L 7.7132243 7.827946 L 5.4317098 4.7630168 L 7.612972 1.5192871 L 4.8834229 1.5192871 L 4.078304 2.951241 L 3.0153198 1.5192871 L 0.2418457 1.5192871 z M 7.612972 1.5192871 L 10.241235 7.5147868 L 8.6532186 10.847917 L 11.371399 10.847917 L 15.408879 1.5192871 L 12.668477 1.5192871 L 11.561568 4.718575 L 10.375594 1.5192871 L 7.612972 1.5192871 z " /><path
       id="text14"
       style="font-weight:900;font-size:35.2777px;font-family:Poppins;-inkscape-font-specification:'Poppins Heavy';letter-spacing:0px;fill:#f8fafc;fill-opacity:1;stroke-width:0.999997"
       d="M 44.006616 1.4748454 C 43.055864 1.4748454 42.429266 1.9334195 42.071334 2.4815023 L 42.071334 1.5192871 L 39.588281 1.5192871 L 39.588281 7.827946 L 42.071334 7.827946 L 42.071334 4.4834473 C 42.071334 3.8794374 42.406918 3.51038 42.955001 3.51038 C 43.491897 3.51038 43.838668 3.8794374 43.838668 4.4834473 L 43.838668 7.827946 L 46.310352 7.827946 L 46.310352 4.7516479 L 46.310352 4.1702881 C 46.310352 2.5372291 45.460711 1.4748454 44.006616 1.4748454 z M 46.310352 4.7516479 C 46.310352 6.765008 47.641537 7.9845256 49.53186 7.9845256 C 51.153737 7.9845256 52.372816 7.0225454 52.674821 5.3671143 L 50.046558 5.3671143 C 49.957078 5.6691193 49.78924 5.8590739 49.47605 5.8590739 C 49.095748 5.8590739 48.827511 5.5122502 48.827511 4.7516479 C 48.827511 3.9910424 49.095748 3.6447388 49.47605 3.6447388 C 49.78924 3.6447388 49.957073 3.8346966 50.046558 4.1366984 L 52.674821 4.1366984 C 52.372816 2.4812674 51.153737 1.5192871 49.53186 1.5192871 C 47.641537 1.5192871 46.310352 2.7382847 46.310352 4.7516479 z M 31.791858 1.5192871 L 34.420121 7.5147868 L 32.832104 10.847917 L 35.549768 10.847917 L 39.587764 1.5192871 L 36.847363 1.5192871 L 35.739937 4.718575 L 34.55448 1.5192871 L 31.791858 1.5192871 z " /></g></svg>
