<?xml version="1.0" encoding="UTF-8" standalone="no"?>
<!-- Created with Inkscape (http://www.inkscape.org/) -->

<svg
   width="52.916668mm"
   height="10.847917mm"
   viewBox="0 0 52.916668 10.847917"
   version="1.1"
   id="svg1"
   xml:space="preserve"
   xmlns="http://www.w3.org/2000/svg"
   xmlns:svg="http://www.w3.org/2000/svg"><defs
     id="defs1" /><g
     id="g1"><rect
       style="fill:none;stroke-width:1"
       id="rect1"
       width="52.916668"
       height="10.847917"
       x="-1.7163086e-07"
       y="5.0756836e-07" /><path
       id="path2"
       style="fill:#f43f5e;fill-opacity:1;stroke:none;stroke-width:0.99999"
       d="m 27.572958,0.00194384 a 4.6960011,4.6960011 0 0 0 -4.66983,4.69409676 4.6960011,4.6960011 0 0 0 4.3618,4.6720973 2.3480007,2.3480007 0 0 0 0.334078,0.023808 A 2.3480007,2.3480007 0 0 0 29.947108,7.0440096 2.3480007,2.3480007 0 0 0 27.599006,4.6960688 2.3480007,2.3480007 0 0 1 25.251069,2.347967 2.3480007,2.3480007 0 0 1 27.572958,0.00197204 Z M 27.222383,4.729046 A 2.3480007,2.3480007 0 0 0 27.11075,4.753298 2.3480007,2.3480007 0 0 1 27.222383,4.729046 Z m -0.366922,0.092699 a 2.3480007,2.3480007 0 0 0 -0.126515,0.047077 2.3480007,2.3480007 0 0 1 0.126515,-0.047077 z m -0.355276,0.1538558 a 2.3480007,2.3480007 0 0 0 -0.114216,0.062445 2.3480007,2.3480007 0 0 1 0.114216,-0.062445 z m -0.352198,0.2290837 a 2.3480007,2.3480007 0 0 0 -0.06924,0.05177 2.3480007,2.3480007 0 0 1 0.06924,-0.05177 z m -0.33602,0.3185483 a 2.3480007,2.3480007 0 0 0 -0.05403,0.072154 2.3480007,2.3480007 0 0 1 0.05403,-0.072154 z m -0.218892,0.3075424 a 2.3480007,2.3480007 0 0 0 -0.06309,0.1156779 2.3480007,2.3480007 0 0 1 0.06309,-0.1156779 z m -0.168737,0.3421713 a 2.3480007,2.3480007 0 0 0 -0.04789,0.1282951 2.3480007,2.3480007 0 0 1 0.04789,-0.1282951 z M 25.30947,6.5511932 a 2.3480007,2.3480007 0 0 0 -0.02574,0.1184253 2.3480007,2.3480007 0 0 1 0.02574,-0.1184253 z m -0.02425,0.8737819 a 2.3480007,2.3480007 0 0 0 0.02554,0.1174545 2.3480007,2.3480007 0 0 1 -0.02554,-0.1174545 z m 0.09593,0.3740406 a 2.3480007,2.3480007 0 0 0 0.0474,0.1273202 2.3480007,2.3480007 0 0 1 -0.0474,-0.1273202 z m 0.162271,0.3672405 a 2.3480007,2.3480007 0 0 0 0.05727,0.1048373 2.3480007,2.3480007 0 0 1 -0.05727,-0.1048373 z m 0.556201,0.6806202 a 2.3480007,2.3480007 0 0 0 0.09723,0.072803 2.3480007,2.3480007 0 0 1 -0.09723,-0.072803 z m 0.317094,0.2198585 a 2.3480007,2.3480007 0 0 0 0.119557,0.065362 2.3480007,2.3480007 0 0 1 -0.119557,-0.065362 z m 0.36239,0.1710051 a 2.3480007,2.3480007 0 0 0 0.114542,0.04271 2.3480007,2.3480007 0 0 1 -0.114542,-0.04271 z" /><path
       id="path3"
       style="fill:#1e293b;fill-opacity:1;stroke:none;stroke-width:0.99999"
       d="M 27.599006,2.1095252e-6 A 2.3480007,2.3480007 0 0 0 25.251069,2.3479388 2.3480007,2.3480007 0 0 0 27.599006,4.6960406 2.3480007,2.3480007 0 0 0 27.92354,4.672756 2.3480007,2.3480007 0 0 1 27.599006,4.6960406 2.3480007,2.3480007 0 0 1 29.947108,7.0439773 2.3480007,2.3480007 0 0 1 27.599006,9.391918 4.6960011,4.6960011 0 0 0 32.295044,4.6960406 4.6960011,4.6960011 0 0 0 27.880508,0.01763881 2.3480007,2.3480007 0 0 0 27.715973,0.00293484 2.3480007,2.3480007 0 0 0 27.599006,1.1490704e-4 Z M 28.100371,0.05484587 a 2.3480007,2.3480007 0 0 1 0.0168,0.0036256 2.3480007,2.3480007 0 0 0 -0.0168,-0.0036256 z m 0.382609,0.11826417 a 2.3480007,2.3480007 0 0 1 0.0065,0.002417 2.3480007,2.3480007 0 0 0 -0.0065,-0.002417 z m 0.350748,0.17844567 a 2.3480007,2.3480007 0 0 1 0.01277,0.007936 2.3480007,2.3480007 0 0 0 -0.01277,-0.007936 z m 0.320002,0.23749517 a 2.3480007,2.3480007 0 0 1 0.006,0.005156 2.3480007,2.3480007 0 0 0 -0.006,-0.005156 z m 0.273574,0.28635261 a 2.3480007,2.3480007 0 0 1 0.0071,0.009225 2.3480007,2.3480007 0 0 0 -0.0071,-0.009225 z m 0.219694,0.32534431 a 2.3480007,2.3480007 0 0 1 0.0076,0.013576 2.3480007,2.3480007 0 0 0 -0.0076,-0.013576 z m 0.165506,0.3646542 a 2.3480007,2.3480007 0 0 1 0.0032,0.010192 2.3480007,2.3480007 0 0 0 -0.0032,-0.010192 z m 0.09901,0.3795395 a 2.3480007,2.3480007 0 0 1 0.0028,0.015671 2.3480007,2.3480007 0 0 0 -0.0028,-0.015671 z m 0.03561,0.4029973 a 2.3480007,2.3480007 0 0 1 -0.02328,0.3245346 2.3480007,2.3480007 0 0 0 0.02328,-0.3245346 z m -0.02703,0.3484799 a 2.3480007,2.3480007 0 0 1 -0.06471,0.2973584 2.3480007,2.3480007 0 0 0 0.06471,-0.2973584 z m -0.07329,0.3268026 A 2.3480007,2.3480007 0 0 1 29.73857,3.3132962 2.3480007,2.3480007 0 0 0 29.846804,3.0232213 Z m -0.114869,0.3054436 a 2.3480007,2.3480007 0 0 1 -0.155793,0.285704 2.3480007,2.3480007 0 0 0 0.155793,-0.285704 z M 29.569671,3.6235901 A 2.3480007,2.3480007 0 0 1 29.381033,3.875483 2.3480007,2.3480007 0 0 0 29.569671,3.6235901 Z M 29.362434,3.8966769 A 2.3480007,2.3480007 0 0 1 29.149037,4.1102308 2.3480007,2.3480007 0 0 0 29.362434,3.8966769 Z M 29.125744,4.130776 A 2.3480007,2.3480007 0 0 1 28.874822,4.318604 2.3480007,2.3480007 0 0 0 29.125744,4.130776 Z M 28.86544,4.3250778 A 2.3480007,2.3480007 0 0 1 28.579728,4.4808713 2.3480007,2.3480007 0 0 0 28.86544,4.3250778 Z m -0.301077,0.1624284 a 2.3480007,2.3480007 0 0 1 -0.290075,0.1082333 2.3480007,2.3480007 0 0 0 0.290075,-0.1082333 z m -0.319519,0.1168019 a 2.3480007,2.3480007 0 0 1 -0.297358,0.064713 2.3480007,2.3480007 0 0 0 0.297358,-0.064713 z" /><path
       id="text11"
       style="font-weight:900;font-size:35.2777px;font-family:Poppins;-inkscape-font-specification:'Poppins Heavy';letter-spacing:0px;fill:#f43f5e;fill-opacity:1;stroke-width:0.999997"
       d="m 19.82773,1.4748454 c -0.950754,0 -1.576834,0.4585773 -1.934765,1.0066569 V 1.5198039 h -2.48357 v 6.3086588 h 2.48357 V 4.483964 c 0,-0.6040067 0.335585,-0.9730672 0.883667,-0.9730672 0.536897,0 0.883667,0.3690605 0.883667,0.9730672 v 3.3444987 h 2.471683 V 4.1708049 c 0,-1.6330622 -0.850157,-2.6959595 -2.304252,-2.6959595 z M 0.2418457,1.5192871 2.4675496,4.5056681 0.3534668,7.827946 H 3.0824992 L 3.876766,6.4073608 4.9392334,7.827946 H 7.7132243 L 5.4317098,4.7630168 7.612972,1.5192871 H 4.8834229 L 4.078304,2.951241 3.0153198,1.5192871 Z m 7.3711263,0 2.628263,5.9954997 -1.5880164,3.3331302 h 2.7181804 l 4.03748,-9.3286299 H 12.668477 L 11.561568,4.718575 10.375594,1.5192871 Z" /><path
       id="text14"
       style="font-weight:900;font-size:35.2777px;font-family:Poppins;-inkscape-font-specification:'Poppins Heavy';letter-spacing:0px;fill:#1e293b;fill-opacity:1;stroke-width:0.999997"
       d="m 44.006616,1.4748454 c -0.950752,0 -1.57735,0.4585741 -1.935282,1.0066569 V 1.5192871 H 39.588281 V 7.827946 h 2.483053 V 4.4834473 c 0,-0.6040099 0.335584,-0.9730673 0.883667,-0.9730673 0.536896,0 0.883667,0.3690574 0.883667,0.9730673 V 7.827946 h 2.471684 V 4.7516479 4.1702881 c 0,-1.633059 -0.849641,-2.6954427 -2.303736,-2.6954427 z m 2.303736,3.2768025 c 0,2.0133601 1.331185,3.2328777 3.221508,3.2328777 1.621877,0 2.840956,-0.9619802 3.142961,-2.6174113 h -2.628263 c -0.08948,0.302005 -0.257318,0.4919596 -0.570508,0.4919596 -0.380302,0 -0.648539,-0.3468237 -0.648539,-1.107426 0,-0.7606055 0.268237,-1.1069091 0.648539,-1.1069091 0.31319,0 0.481023,0.1899578 0.570508,0.4919596 h 2.628263 C 52.372816,2.4812674 51.153737,1.5192871 49.53186,1.5192871 c -1.890323,0 -3.221508,1.2189976 -3.221508,3.2323608 z M 31.791858,1.5192871 34.420121,7.5147868 32.832104,10.847917 h 2.717664 L 39.587764,1.5192871 H 36.847363 L 35.739937,4.718575 34.55448,1.5192871 Z" /></g></svg>
